<mxfile host="app.diagrams.net" modified="2024-06-03T15:37:37.062Z" agent="Mozilla/5.0 (Windows NT 10.0; Win64; x64) AppleWebKit/537.36 (KHTML, like Gecko) Chrome/125.0.0.0 Safari/537.36 Edg/125.0.0.0" etag="9FD7b7JAALsiofL95zi4" version="24.4.13" type="github">
  <diagram id="C5RBs43oDa-KdzZeNtuy" name="Page-1">
    <mxGraphModel dx="2256" dy="613" grid="1" gridSize="10" guides="1" tooltips="1" connect="1" arrows="1" fold="1" page="1" pageScale="1" pageWidth="827" pageHeight="1169" math="0" shadow="0">
      <root>
        <mxCell id="WIyWlLk6GJQsqaUBKTNV-0" />
        <mxCell id="WIyWlLk6GJQsqaUBKTNV-1" parent="WIyWlLk6GJQsqaUBKTNV-0" />
        <mxCell id="Naty5ycBIQDNIWmJDL6v-69" style="edgeStyle=orthogonalEdgeStyle;rounded=0;orthogonalLoop=1;jettySize=auto;html=1;entryX=0.5;entryY=0;entryDx=0;entryDy=0;" edge="1" parent="WIyWlLk6GJQsqaUBKTNV-1" source="Naty5ycBIQDNIWmJDL6v-23" target="Naty5ycBIQDNIWmJDL6v-63">
          <mxGeometry relative="1" as="geometry" />
        </mxCell>
        <mxCell id="Naty5ycBIQDNIWmJDL6v-23" value="시작" style="rounded=1;whiteSpace=wrap;html=1;" vertex="1" parent="WIyWlLk6GJQsqaUBKTNV-1">
          <mxGeometry x="10" y="60" width="120" height="60" as="geometry" />
        </mxCell>
        <mxCell id="Naty5ycBIQDNIWmJDL6v-63" value="IDLE" style="rounded=0;whiteSpace=wrap;html=1;" vertex="1" parent="WIyWlLk6GJQsqaUBKTNV-1">
          <mxGeometry x="10" y="180" width="120" height="60" as="geometry" />
        </mxCell>
        <mxCell id="Naty5ycBIQDNIWmJDL6v-70" value="" style="endArrow=none;html=1;rounded=0;" edge="1" parent="WIyWlLk6GJQsqaUBKTNV-1">
          <mxGeometry width="50" height="50" relative="1" as="geometry">
            <mxPoint x="70" y="720" as="sourcePoint" />
            <mxPoint x="69.5" y="240" as="targetPoint" />
          </mxGeometry>
        </mxCell>
        <mxCell id="Naty5ycBIQDNIWmJDL6v-71" value="" style="endArrow=classic;html=1;rounded=0;" edge="1" parent="WIyWlLk6GJQsqaUBKTNV-1">
          <mxGeometry width="50" height="50" relative="1" as="geometry">
            <mxPoint x="70" y="280" as="sourcePoint" />
            <mxPoint x="160" y="280" as="targetPoint" />
          </mxGeometry>
        </mxCell>
        <mxCell id="Naty5ycBIQDNIWmJDL6v-87" style="edgeStyle=orthogonalEdgeStyle;rounded=0;orthogonalLoop=1;jettySize=auto;html=1;" edge="1" parent="WIyWlLk6GJQsqaUBKTNV-1" source="Naty5ycBIQDNIWmJDL6v-73" target="Naty5ycBIQDNIWmJDL6v-86">
          <mxGeometry relative="1" as="geometry" />
        </mxCell>
        <mxCell id="Naty5ycBIQDNIWmJDL6v-73" value="W,A,S,D 입력" style="shape=parallelogram;perimeter=parallelogramPerimeter;whiteSpace=wrap;html=1;fixedSize=1;" vertex="1" parent="WIyWlLk6GJQsqaUBKTNV-1">
          <mxGeometry x="150" y="250" width="120" height="60" as="geometry" />
        </mxCell>
        <mxCell id="Naty5ycBIQDNIWmJDL6v-74" value="" style="endArrow=classic;html=1;rounded=0;" edge="1" parent="WIyWlLk6GJQsqaUBKTNV-1">
          <mxGeometry width="50" height="50" relative="1" as="geometry">
            <mxPoint x="70" y="370" as="sourcePoint" />
            <mxPoint x="160" y="370" as="targetPoint" />
          </mxGeometry>
        </mxCell>
        <mxCell id="Naty5ycBIQDNIWmJDL6v-89" value="" style="edgeStyle=orthogonalEdgeStyle;rounded=0;orthogonalLoop=1;jettySize=auto;html=1;" edge="1" parent="WIyWlLk6GJQsqaUBKTNV-1" source="Naty5ycBIQDNIWmJDL6v-75" target="Naty5ycBIQDNIWmJDL6v-88">
          <mxGeometry relative="1" as="geometry" />
        </mxCell>
        <mxCell id="Naty5ycBIQDNIWmJDL6v-75" value="Space 키 입력" style="shape=parallelogram;perimeter=parallelogramPerimeter;whiteSpace=wrap;html=1;fixedSize=1;" vertex="1" parent="WIyWlLk6GJQsqaUBKTNV-1">
          <mxGeometry x="150" y="340" width="120" height="60" as="geometry" />
        </mxCell>
        <mxCell id="Naty5ycBIQDNIWmJDL6v-76" value="" style="endArrow=classic;html=1;rounded=0;" edge="1" parent="WIyWlLk6GJQsqaUBKTNV-1">
          <mxGeometry width="50" height="50" relative="1" as="geometry">
            <mxPoint x="70" y="460" as="sourcePoint" />
            <mxPoint x="160" y="460" as="targetPoint" />
          </mxGeometry>
        </mxCell>
        <mxCell id="Naty5ycBIQDNIWmJDL6v-91" value="" style="edgeStyle=orthogonalEdgeStyle;rounded=0;orthogonalLoop=1;jettySize=auto;html=1;" edge="1" parent="WIyWlLk6GJQsqaUBKTNV-1" source="Naty5ycBIQDNIWmJDL6v-77" target="Naty5ycBIQDNIWmJDL6v-90">
          <mxGeometry relative="1" as="geometry" />
        </mxCell>
        <mxCell id="Naty5ycBIQDNIWmJDL6v-77" value="마우스 이동" style="shape=parallelogram;perimeter=parallelogramPerimeter;whiteSpace=wrap;html=1;fixedSize=1;" vertex="1" parent="WIyWlLk6GJQsqaUBKTNV-1">
          <mxGeometry x="150" y="430" width="120" height="60" as="geometry" />
        </mxCell>
        <mxCell id="Naty5ycBIQDNIWmJDL6v-78" value="" style="endArrow=classic;html=1;rounded=0;" edge="1" parent="WIyWlLk6GJQsqaUBKTNV-1">
          <mxGeometry width="50" height="50" relative="1" as="geometry">
            <mxPoint x="70" y="550" as="sourcePoint" />
            <mxPoint x="160" y="550" as="targetPoint" />
          </mxGeometry>
        </mxCell>
        <mxCell id="Naty5ycBIQDNIWmJDL6v-80" value="" style="endArrow=classic;html=1;rounded=0;" edge="1" parent="WIyWlLk6GJQsqaUBKTNV-1">
          <mxGeometry width="50" height="50" relative="1" as="geometry">
            <mxPoint x="70" y="640" as="sourcePoint" />
            <mxPoint x="160" y="640" as="targetPoint" />
          </mxGeometry>
        </mxCell>
        <mxCell id="Naty5ycBIQDNIWmJDL6v-96" style="edgeStyle=orthogonalEdgeStyle;rounded=0;orthogonalLoop=1;jettySize=auto;html=1;entryX=0;entryY=0.5;entryDx=0;entryDy=0;" edge="1" parent="WIyWlLk6GJQsqaUBKTNV-1" source="Naty5ycBIQDNIWmJDL6v-83" target="Naty5ycBIQDNIWmJDL6v-95">
          <mxGeometry relative="1" as="geometry" />
        </mxCell>
        <mxCell id="Naty5ycBIQDNIWmJDL6v-83" value="사다리 접근&lt;div&gt;(isOnLadder)&lt;/div&gt;" style="rounded=0;whiteSpace=wrap;html=1;" vertex="1" parent="WIyWlLk6GJQsqaUBKTNV-1">
          <mxGeometry x="160" y="524.5" width="120" height="60" as="geometry" />
        </mxCell>
        <mxCell id="Naty5ycBIQDNIWmJDL6v-115" style="edgeStyle=orthogonalEdgeStyle;rounded=0;orthogonalLoop=1;jettySize=auto;html=1;" edge="1" parent="WIyWlLk6GJQsqaUBKTNV-1" source="Naty5ycBIQDNIWmJDL6v-86">
          <mxGeometry relative="1" as="geometry">
            <mxPoint x="450" y="200" as="targetPoint" />
          </mxGeometry>
        </mxCell>
        <mxCell id="Naty5ycBIQDNIWmJDL6v-86" value="이동" style="rounded=0;whiteSpace=wrap;html=1;" vertex="1" parent="WIyWlLk6GJQsqaUBKTNV-1">
          <mxGeometry x="294" y="250" width="120" height="60" as="geometry" />
        </mxCell>
        <mxCell id="Naty5ycBIQDNIWmJDL6v-113" style="edgeStyle=orthogonalEdgeStyle;rounded=0;orthogonalLoop=1;jettySize=auto;html=1;" edge="1" parent="WIyWlLk6GJQsqaUBKTNV-1" source="Naty5ycBIQDNIWmJDL6v-88">
          <mxGeometry relative="1" as="geometry">
            <mxPoint x="510" y="200" as="targetPoint" />
          </mxGeometry>
        </mxCell>
        <mxCell id="Naty5ycBIQDNIWmJDL6v-88" value="JUMP" style="whiteSpace=wrap;html=1;" vertex="1" parent="WIyWlLk6GJQsqaUBKTNV-1">
          <mxGeometry x="294" y="340" width="120" height="60" as="geometry" />
        </mxCell>
        <mxCell id="Naty5ycBIQDNIWmJDL6v-114" style="edgeStyle=orthogonalEdgeStyle;rounded=0;orthogonalLoop=1;jettySize=auto;html=1;" edge="1" parent="WIyWlLk6GJQsqaUBKTNV-1" source="Naty5ycBIQDNIWmJDL6v-90">
          <mxGeometry relative="1" as="geometry">
            <mxPoint x="640" y="200" as="targetPoint" />
          </mxGeometry>
        </mxCell>
        <mxCell id="Naty5ycBIQDNIWmJDL6v-90" value="회전" style="whiteSpace=wrap;html=1;" vertex="1" parent="WIyWlLk6GJQsqaUBKTNV-1">
          <mxGeometry x="294" y="430" width="120" height="60" as="geometry" />
        </mxCell>
        <mxCell id="Naty5ycBIQDNIWmJDL6v-94" style="edgeStyle=orthogonalEdgeStyle;rounded=0;orthogonalLoop=1;jettySize=auto;html=1;" edge="1" parent="WIyWlLk6GJQsqaUBKTNV-1" source="Naty5ycBIQDNIWmJDL6v-92" target="Naty5ycBIQDNIWmJDL6v-93">
          <mxGeometry relative="1" as="geometry" />
        </mxCell>
        <mxCell id="Naty5ycBIQDNIWmJDL6v-92" value="Shift 키 입력" style="shape=parallelogram;perimeter=parallelogramPerimeter;whiteSpace=wrap;html=1;fixedSize=1;" vertex="1" parent="WIyWlLk6GJQsqaUBKTNV-1">
          <mxGeometry x="160" y="610" width="120" height="60" as="geometry" />
        </mxCell>
        <mxCell id="Naty5ycBIQDNIWmJDL6v-133" style="edgeStyle=orthogonalEdgeStyle;rounded=0;orthogonalLoop=1;jettySize=auto;html=1;" edge="1" parent="WIyWlLk6GJQsqaUBKTNV-1" source="Naty5ycBIQDNIWmJDL6v-93">
          <mxGeometry relative="1" as="geometry">
            <mxPoint x="1020" y="200" as="targetPoint" />
            <Array as="points">
              <mxPoint x="1021" y="650" />
            </Array>
          </mxGeometry>
        </mxCell>
        <mxCell id="Naty5ycBIQDNIWmJDL6v-93" value="DASH" style="whiteSpace=wrap;html=1;" vertex="1" parent="WIyWlLk6GJQsqaUBKTNV-1">
          <mxGeometry x="310" y="610" width="120" height="60" as="geometry" />
        </mxCell>
        <mxCell id="Naty5ycBIQDNIWmJDL6v-98" style="edgeStyle=orthogonalEdgeStyle;rounded=0;orthogonalLoop=1;jettySize=auto;html=1;entryX=0;entryY=0.5;entryDx=0;entryDy=0;" edge="1" parent="WIyWlLk6GJQsqaUBKTNV-1" source="Naty5ycBIQDNIWmJDL6v-95" target="Naty5ycBIQDNIWmJDL6v-97">
          <mxGeometry relative="1" as="geometry" />
        </mxCell>
        <mxCell id="Naty5ycBIQDNIWmJDL6v-104" style="edgeStyle=orthogonalEdgeStyle;rounded=0;orthogonalLoop=1;jettySize=auto;html=1;entryX=0;entryY=0.5;entryDx=0;entryDy=0;" edge="1" parent="WIyWlLk6GJQsqaUBKTNV-1" source="Naty5ycBIQDNIWmJDL6v-95" target="Naty5ycBIQDNIWmJDL6v-101">
          <mxGeometry relative="1" as="geometry" />
        </mxCell>
        <mxCell id="Naty5ycBIQDNIWmJDL6v-95" value="float climbInput = Input.GetAxisRaw(&quot;Vertiacal&quot;)" style="whiteSpace=wrap;html=1;" vertex="1" parent="WIyWlLk6GJQsqaUBKTNV-1">
          <mxGeometry x="310" y="525" width="190" height="60" as="geometry" />
        </mxCell>
        <mxCell id="Naty5ycBIQDNIWmJDL6v-100" value="" style="edgeStyle=orthogonalEdgeStyle;rounded=0;orthogonalLoop=1;jettySize=auto;html=1;" edge="1" parent="WIyWlLk6GJQsqaUBKTNV-1" source="Naty5ycBIQDNIWmJDL6v-97" target="Naty5ycBIQDNIWmJDL6v-99">
          <mxGeometry relative="1" as="geometry" />
        </mxCell>
        <mxCell id="Naty5ycBIQDNIWmJDL6v-97" value="W키 입력&lt;div&gt;(climbInput&amp;gt;0)&lt;/div&gt;" style="shape=parallelogram;perimeter=parallelogramPerimeter;whiteSpace=wrap;html=1;fixedSize=1;" vertex="1" parent="WIyWlLk6GJQsqaUBKTNV-1">
          <mxGeometry x="530" y="490" width="120" height="60" as="geometry" />
        </mxCell>
        <mxCell id="Naty5ycBIQDNIWmJDL6v-99" value="rb.position + Vector3.up * climbSpeed * DeltaTime" style="whiteSpace=wrap;html=1;" vertex="1" parent="WIyWlLk6GJQsqaUBKTNV-1">
          <mxGeometry x="670" y="490" width="190" height="60" as="geometry" />
        </mxCell>
        <mxCell id="Naty5ycBIQDNIWmJDL6v-103" style="edgeStyle=orthogonalEdgeStyle;rounded=0;orthogonalLoop=1;jettySize=auto;html=1;" edge="1" parent="WIyWlLk6GJQsqaUBKTNV-1" source="Naty5ycBIQDNIWmJDL6v-101" target="Naty5ycBIQDNIWmJDL6v-102">
          <mxGeometry relative="1" as="geometry" />
        </mxCell>
        <mxCell id="Naty5ycBIQDNIWmJDL6v-101" value="S키 입력&lt;div&gt;(climbInput&amp;lt;0)&lt;/div&gt;" style="shape=parallelogram;perimeter=parallelogramPerimeter;whiteSpace=wrap;html=1;fixedSize=1;" vertex="1" parent="WIyWlLk6GJQsqaUBKTNV-1">
          <mxGeometry x="520" y="570" width="120" height="60" as="geometry" />
        </mxCell>
        <mxCell id="Naty5ycBIQDNIWmJDL6v-102" value="rb.position - Vector3.up * climbSpeed * DeltaTime" style="whiteSpace=wrap;html=1;" vertex="1" parent="WIyWlLk6GJQsqaUBKTNV-1">
          <mxGeometry x="670" y="570" width="190" height="60" as="geometry" />
        </mxCell>
        <mxCell id="Naty5ycBIQDNIWmJDL6v-130" style="edgeStyle=orthogonalEdgeStyle;rounded=0;orthogonalLoop=1;jettySize=auto;html=1;" edge="1" parent="WIyWlLk6GJQsqaUBKTNV-1" source="Naty5ycBIQDNIWmJDL6v-105">
          <mxGeometry relative="1" as="geometry">
            <mxPoint x="960" y="200" as="targetPoint" />
          </mxGeometry>
        </mxCell>
        <mxCell id="Naty5ycBIQDNIWmJDL6v-105" value="" style="strokeWidth=1;html=1;shape=mxgraph.flowchart.annotation_2;align=left;labelPosition=right;pointerEvents=1;rotation=-180;" vertex="1" parent="WIyWlLk6GJQsqaUBKTNV-1">
          <mxGeometry x="860" y="510" width="50" height="100" as="geometry" />
        </mxCell>
        <mxCell id="Naty5ycBIQDNIWmJDL6v-107" value="" style="endArrow=classic;html=1;rounded=0;" edge="1" parent="WIyWlLk6GJQsqaUBKTNV-1">
          <mxGeometry width="50" height="50" relative="1" as="geometry">
            <mxPoint x="70" y="720" as="sourcePoint" />
            <mxPoint x="160" y="720" as="targetPoint" />
          </mxGeometry>
        </mxCell>
        <mxCell id="Naty5ycBIQDNIWmJDL6v-110" value="" style="edgeStyle=orthogonalEdgeStyle;rounded=0;orthogonalLoop=1;jettySize=auto;html=1;" edge="1" parent="WIyWlLk6GJQsqaUBKTNV-1" source="Naty5ycBIQDNIWmJDL6v-108" target="Naty5ycBIQDNIWmJDL6v-109">
          <mxGeometry relative="1" as="geometry" />
        </mxCell>
        <mxCell id="Naty5ycBIQDNIWmJDL6v-108" value="F키 입력" style="shape=parallelogram;perimeter=parallelogramPerimeter;whiteSpace=wrap;html=1;fixedSize=1;" vertex="1" parent="WIyWlLk6GJQsqaUBKTNV-1">
          <mxGeometry x="150" y="690" width="120" height="60" as="geometry" />
        </mxCell>
        <mxCell id="Naty5ycBIQDNIWmJDL6v-109" value="Flash Light 활성화" style="shape=document;whiteSpace=wrap;html=1;boundedLbl=1;" vertex="1" parent="WIyWlLk6GJQsqaUBKTNV-1">
          <mxGeometry x="310" y="680" width="120" height="80" as="geometry" />
        </mxCell>
        <mxCell id="Naty5ycBIQDNIWmJDL6v-120" value="" style="edgeStyle=orthogonalEdgeStyle;rounded=0;orthogonalLoop=1;jettySize=auto;html=1;" edge="1" parent="WIyWlLk6GJQsqaUBKTNV-1" source="Naty5ycBIQDNIWmJDL6v-117" target="Naty5ycBIQDNIWmJDL6v-119">
          <mxGeometry relative="1" as="geometry">
            <mxPoint x="-65" y="940" as="sourcePoint" />
          </mxGeometry>
        </mxCell>
        <mxCell id="Naty5ycBIQDNIWmJDL6v-132" style="edgeStyle=orthogonalEdgeStyle;rounded=0;orthogonalLoop=1;jettySize=auto;html=1;entryX=1;entryY=0.25;entryDx=0;entryDy=0;" edge="1" parent="WIyWlLk6GJQsqaUBKTNV-1" source="Naty5ycBIQDNIWmJDL6v-117" target="Naty5ycBIQDNIWmJDL6v-63">
          <mxGeometry relative="1" as="geometry">
            <Array as="points">
              <mxPoint x="1070" y="825" />
              <mxPoint x="1070" y="195" />
            </Array>
          </mxGeometry>
        </mxCell>
        <mxCell id="Naty5ycBIQDNIWmJDL6v-117" value="Enemy에게 공격을 받았는가?" style="rhombus;whiteSpace=wrap;html=1;" vertex="1" parent="WIyWlLk6GJQsqaUBKTNV-1">
          <mxGeometry x="-45" y="780" width="230" height="90" as="geometry" />
        </mxCell>
        <mxCell id="Naty5ycBIQDNIWmJDL6v-118" value="" style="endArrow=classic;html=1;rounded=0;entryX=0.5;entryY=0;entryDx=0;entryDy=0;" edge="1" parent="WIyWlLk6GJQsqaUBKTNV-1" target="Naty5ycBIQDNIWmJDL6v-117">
          <mxGeometry width="50" height="50" relative="1" as="geometry">
            <mxPoint x="70" y="720" as="sourcePoint" />
            <mxPoint x="70" y="770" as="targetPoint" />
          </mxGeometry>
        </mxCell>
        <mxCell id="Naty5ycBIQDNIWmJDL6v-122" value="" style="edgeStyle=orthogonalEdgeStyle;rounded=0;orthogonalLoop=1;jettySize=auto;html=1;" edge="1" parent="WIyWlLk6GJQsqaUBKTNV-1" source="Naty5ycBIQDNIWmJDL6v-119" target="Naty5ycBIQDNIWmJDL6v-121">
          <mxGeometry relative="1" as="geometry" />
        </mxCell>
        <mxCell id="Naty5ycBIQDNIWmJDL6v-119" value="DEAD" style="whiteSpace=wrap;html=1;" vertex="1" parent="WIyWlLk6GJQsqaUBKTNV-1">
          <mxGeometry x="10" y="910" width="120" height="60" as="geometry" />
        </mxCell>
        <mxCell id="Naty5ycBIQDNIWmJDL6v-127" style="edgeStyle=orthogonalEdgeStyle;rounded=0;orthogonalLoop=1;jettySize=auto;html=1;" edge="1" parent="WIyWlLk6GJQsqaUBKTNV-1" source="Naty5ycBIQDNIWmJDL6v-121" target="Naty5ycBIQDNIWmJDL6v-126">
          <mxGeometry relative="1" as="geometry" />
        </mxCell>
        <mxCell id="Naty5ycBIQDNIWmJDL6v-121" value="GameOver UI&amp;nbsp; 출력" style="shape=document;whiteSpace=wrap;html=1;boundedLbl=1;" vertex="1" parent="WIyWlLk6GJQsqaUBKTNV-1">
          <mxGeometry x="-230" y="900" width="150" height="80" as="geometry" />
        </mxCell>
        <mxCell id="Naty5ycBIQDNIWmJDL6v-123" value="Yes" style="text;html=1;align=center;verticalAlign=middle;resizable=0;points=[];autosize=1;strokeColor=none;fillColor=none;" vertex="1" parent="WIyWlLk6GJQsqaUBKTNV-1">
          <mxGeometry x="70" y="870" width="40" height="30" as="geometry" />
        </mxCell>
        <mxCell id="Naty5ycBIQDNIWmJDL6v-128" style="edgeStyle=orthogonalEdgeStyle;rounded=0;orthogonalLoop=1;jettySize=auto;html=1;entryX=0;entryY=0.5;entryDx=0;entryDy=0;" edge="1" parent="WIyWlLk6GJQsqaUBKTNV-1" source="Naty5ycBIQDNIWmJDL6v-126" target="Naty5ycBIQDNIWmJDL6v-63">
          <mxGeometry relative="1" as="geometry">
            <Array as="points">
              <mxPoint x="-155" y="210" />
            </Array>
          </mxGeometry>
        </mxCell>
        <mxCell id="Naty5ycBIQDNIWmJDL6v-126" value="이전 스폰장소에서 리스폰" style="shape=document;whiteSpace=wrap;html=1;boundedLbl=1;" vertex="1" parent="WIyWlLk6GJQsqaUBKTNV-1">
          <mxGeometry x="-230" y="770" width="150" height="80" as="geometry" />
        </mxCell>
        <mxCell id="Naty5ycBIQDNIWmJDL6v-134" value="No" style="text;html=1;align=center;verticalAlign=middle;resizable=0;points=[];autosize=1;strokeColor=none;fillColor=none;" vertex="1" parent="WIyWlLk6GJQsqaUBKTNV-1">
          <mxGeometry x="170" y="795" width="40" height="30" as="geometry" />
        </mxCell>
      </root>
    </mxGraphModel>
  </diagram>
</mxfile>
